<svg width="25" height="27" viewBox="0 0 25 27" fill="none" xmlns="http://www.w3.org/2000/svg">
<path d="M9.17703 26.4167L8.6937 22.2833C8.4319 22.1757 8.1854 22.0465 7.9542 21.8958C7.72301 21.7451 7.49624 21.5837 7.27391 21.4115L3.67912 23.026L0.356201 16.8906L3.46766 14.3719C3.44752 14.2212 3.43745 14.0761 3.43745 13.9366V13.0647C3.43745 12.9243 3.44752 12.7788 3.46766 12.6281L0.356201 10.1094L3.67912 3.97395L7.27391 5.58854C7.49544 5.41632 7.72703 5.25486 7.9687 5.10416C8.21037 4.95347 8.45203 4.8243 8.6937 4.71666L9.17703 0.583328H15.8229L16.3062 4.71666C16.568 4.8243 16.8149 4.95347 17.0469 5.10416C17.2789 5.25486 17.5053 5.41632 17.726 5.58854L21.3208 3.97395L24.6437 10.1094L21.5322 12.6281C21.5524 12.7788 21.5624 12.9243 21.5624 13.0647V13.9353C21.5624 14.0756 21.5423 14.2212 21.502 14.3719L24.6135 16.8906L21.2906 23.026L17.726 21.4115C17.5045 21.5837 17.2729 21.7451 17.0312 21.8958C16.7895 22.0465 16.5479 22.1757 16.3062 22.2833L15.8229 26.4167H9.17703ZM12.5604 18.0208C13.7284 18.0208 14.7253 17.5795 15.551 16.6969C16.3767 15.8142 16.7895 14.7486 16.7895 13.5C16.7895 12.2514 16.3767 11.1858 15.551 10.3031C14.7253 9.42048 13.7284 8.97916 12.5604 8.97916C11.3722 8.97916 10.3701 9.42048 9.55403 10.3031C8.73801 11.1858 8.3304 12.2514 8.3312 13.5C8.3312 14.7486 8.73921 15.8142 9.55524 16.6969C10.3713 17.5795 11.373 18.0208 12.5604 18.0208Z" />
</svg>
