<svg width="20" height="20" viewBox="0 0 27 30" fill="none" xmlns="http://www.w3.org/2000/svg">
<path d="M4.61361e-06 5.33334V2.66667C4.61361e-06 1.93334 0.261338 1.30534 0.784005 0.782671C1.30667 0.260005 1.93423 -0.000884275 2.66667 4.61361e-06H5.33334C5.71112 4.61361e-06 6.028 0.128005 6.284 0.384005C6.54 0.640005 6.66756 0.956449 6.66667 1.33334C6.66667 1.71112 6.53867 2.028 6.28267 2.284C6.02667 2.54 5.71023 2.66756 5.33334 2.66667H2.66667V5.33334C2.66667 5.71112 2.53867 6.028 2.28267 6.284C2.02667 6.54 1.71023 6.66756 1.33334 6.66667C0.95556 6.66667 0.638671 6.53867 0.382671 6.28267C0.126671 6.02667 -0.000884275 5.71023 4.61361e-06 5.33334ZM24 5.33334V2.66667H21.3333C20.9556 2.66667 20.6387 2.53867 20.3827 2.28267C20.1267 2.02667 19.9991 1.71023 20 1.33334C20 0.95556 20.128 0.638671 20.384 0.382671C20.64 0.126671 20.9565 -0.000884275 21.3333 4.61361e-06H24C24.7333 4.61361e-06 25.3613 0.261338 25.884 0.784005C26.4067 1.30667 26.6676 1.93423 26.6667 2.66667V5.33334C26.6667 5.71112 26.5387 6.028 26.2827 6.284C26.0267 6.54 25.7102 6.66756 25.3333 6.66667C24.9556 6.66667 24.6387 6.53867 24.3827 6.28267C24.1267 6.02667 23.9991 5.71023 24 5.33334ZM4.61361e-06 26.6667V24C4.61361e-06 23.6222 0.128005 23.3053 0.384005 23.0493C0.640005 22.7933 0.956449 22.6658 1.33334 22.6667C1.71112 22.6667 2.028 22.7947 2.284 23.0507C2.54 23.3067 2.66756 23.6231 2.66667 24V26.6667H5.33334C5.71112 26.6667 6.028 26.7947 6.284 27.0507C6.54 27.3067 6.66756 27.6231 6.66667 28C6.66667 28.3778 6.53867 28.6947 6.28267 28.9507C6.02667 29.2067 5.71023 29.3342 5.33334 29.3333H2.66667C1.93334 29.3333 1.30534 29.072 0.782671 28.5493C0.260004 28.0267 -0.000884275 27.3991 4.61361e-06 26.6667ZM24 29.3333H21.3333C20.9556 29.3333 20.6387 29.2053 20.3827 28.9493C20.1267 28.6933 19.9991 28.3769 20 28C20 27.6222 20.128 27.3053 20.384 27.0493C20.64 26.7933 20.9565 26.6658 21.3333 26.6667H24V24C24 23.6222 24.128 23.3053 24.384 23.0493C24.64 22.7933 24.9565 22.6658 25.3333 22.6667C25.7111 22.6667 26.028 22.7947 26.284 23.0507C26.54 23.3067 26.6676 23.6231 26.6667 24V26.6667C26.6667 27.4 26.4053 28.028 25.8827 28.5507C25.36 29.0733 24.7325 29.3342 24 29.3333ZM6.66667 22.6667H20V6.66667H6.66667V22.6667ZM6.66667 25.3333C5.93334 25.3333 5.30534 25.072 4.78267 24.5493C4.26 24.0267 3.99912 23.3991 4 22.6667V6.66667C4 5.93334 4.26134 5.30534 4.784 4.78267C5.30667 4.26 5.93423 3.99912 6.66667 4H20C20.7333 4 21.3613 4.26134 21.884 4.784C22.4067 5.30667 22.6676 5.93423 22.6667 6.66667V22.6667C22.6667 23.4 22.4053 24.028 21.8827 24.5507C21.36 25.0733 20.7325 25.3342 20 25.3333H6.66667ZM10.6667 12H16C16.3778 12 16.6947 11.872 16.9507 11.616C17.2067 11.36 17.3342 11.0436 17.3333 10.6667C17.3333 10.2889 17.2053 9.972 16.9493 9.716C16.6933 9.46 16.3769 9.33245 16 9.33334H10.6667C10.2889 9.33334 9.972 9.46134 9.716 9.71734C9.46 9.97334 9.33245 10.2898 9.33334 10.6667C9.33334 11.0444 9.46134 11.3613 9.71734 11.6173C9.97334 11.8733 10.2898 12.0009 10.6667 12ZM10.6667 16H16C16.3778 16 16.6947 15.872 16.9507 15.616C17.2067 15.36 17.3342 15.0436 17.3333 14.6667C17.3333 14.2889 17.2053 13.972 16.9493 13.716C16.6933 13.46 16.3769 13.3324 16 13.3333H10.6667C10.2889 13.3333 9.972 13.4613 9.716 13.7173C9.46 13.9733 9.33245 14.2898 9.33334 14.6667C9.33334 15.0444 9.46134 15.3613 9.71734 15.6173C9.97334 15.8733 10.2898 16.0009 10.6667 16ZM10.6667 20H16C16.3778 20 16.6947 19.872 16.9507 19.616C17.2067 19.36 17.3342 19.0436 17.3333 18.6667C17.3333 18.2889 17.2053 17.972 16.9493 17.716C16.6933 17.46 16.3769 17.3325 16 17.3333H10.6667C10.2889 17.3333 9.972 17.4613 9.716 17.7173C9.46 17.9733 9.33245 18.2898 9.33334 18.6667C9.33334 19.0444 9.46134 19.3613 9.71734 19.6173C9.97334 19.8733 10.2898 20.0009 10.6667 20Z" />
</svg>
